<?xml version="1.0" standalone="no"?>
<!DOCTYPE svg PUBLIC "-//W3C//DTD SVG 20010904//EN"
 "http://www.w3.org/TR/2001/REC-SVG-20010904/DTD/svg10.dtd">
<svg version="1.0" xmlns="http://www.w3.org/2000/svg"
 width="2048.000000pt" height="2048.000000pt" viewBox="0 0 2048.000000 2048.000000"
 preserveAspectRatio="xMidYMid meet">
<metadata>
Created by potrace 1.14, written by Peter Selinger 2001-2017
</metadata>
<g transform="translate(0.000000,2048.000000) scale(0.100000,-0.100000)"
fill="#000000" stroke="none">
<path d="M9450 20473 c-162 -12 -463 -43 -570 -59 -19 -2 -69 -9 -110 -15
-177 -23 -516 -84 -735 -133 -474 -105 -796 -199 -1300 -376 -281 -99 -682
-271 -1016 -434 -574 -280 -1257 -705 -1724 -1071 -145 -114 -294 -233 -320
-256 -16 -15 -64 -55 -105 -89 -41 -34 -165 -144 -275 -245 -593 -542 -1132
-1171 -1589 -1854 -370 -553 -658 -1089 -942 -1751 -9 -19 -19 -44 -24 -55
-14 -30 -94 -240 -125 -325 -14 -41 -31 -86 -37 -100 -5 -14 -25 -68 -43 -120
-186 -539 -347 -1178 -429 -1710 -8 -52 -22 -140 -31 -195 -8 -55 -20 -144
-25 -198 -6 -54 -12 -108 -15 -120 -3 -12 -12 -107 -20 -212 -22 -276 -21
-1583 0 -1845 25 -292 78 -686 131 -965 242 -1276 688 -2430 1362 -3525 558
-906 1270 -1735 2106 -2449 674 -576 1487 -1095 2318 -1482 84 -39 191 -87
238 -106 47 -20 103 -44 125 -54 55 -25 268 -107 500 -193 79 -29 364 -123
470 -155 582 -174 1144 -292 1752 -366 180 -22 2266 -22 2446 0 887 109 1743
325 2538 641 319 126 466 192 784 349 409 202 698 368 1117 641 147 96 474
330 588 421 454 360 753 625 1055 934 1013 1038 1779 2228 2284 3551 340 892
561 1852 636 2768 21 254 21 1569 0 1835 -8 105 -17 200 -20 212 -3 12 -9 66
-15 120 -5 54 -17 143 -26 198 -8 55 -22 143 -30 195 -47 306 -134 709 -219
1025 -8 28 -20 75 -28 105 -9 30 -20 69 -25 85 -5 17 -20 64 -32 105 -62 212
-140 440 -242 710 -64 169 -83 216 -123 305 -7 17 -25 58 -39 92 -237 568
-643 1290 -1045 1858 -134 188 -443 592 -471 615 -4 3 -28 32 -54 65 -156 194
-621 683 -866 911 -1214 1126 -2671 1941 -4245 2376 -207 57 -258 70 -410 104
-60 13 -126 28 -145 34 -33 8 -139 30 -315 64 -275 52 -762 116 -1040 136
-124 9 -1509 12 -1625 3z m1420 -127 c91 -8 210 -17 265 -21 55 -3 154 -13
220 -21 247 -31 362 -46 445 -60 47 -8 123 -21 170 -29 121 -20 294 -53 370
-70 370 -82 474 -107 510 -120 19 -7 112 -35 205 -61 173 -48 628 -198 765
-252 41 -16 140 -55 220 -87 164 -64 496 -212 645 -288 55 -27 163 -82 239
-120 266 -134 619 -342 931 -551 160 -106 454 -316 535 -381 36 -28 110 -87
165 -130 401 -317 978 -866 1261 -1200 37 -44 111 -129 163 -190 53 -60 121
-141 152 -180 30 -38 91 -115 135 -170 89 -111 356 -488 450 -635 168 -260
208 -326 285 -460 282 -493 503 -959 715 -1510 55 -143 189 -548 251 -760 76
-262 71 -243 124 -475 81 -351 86 -378 124 -618 8 -49 17 -92 19 -96 5 -8 23
-137 51 -376 8 -66 17 -132 20 -147 7 -30 30 -329 46 -593 13 -213 6 -1068
-10 -1195 -6 -47 -15 -146 -20 -220 -16 -212 -63 -578 -101 -785 -11 -60 -29
-159 -39 -220 -17 -98 -30 -159 -87 -405 -45 -194 -60 -252 -138 -525 -94
-329 -319 -943 -458 -1250 -28 -60 -64 -139 -80 -175 -35 -78 -248 -502 -291
-580 -17 -30 -54 -97 -84 -148 -29 -50 -77 -134 -107 -185 -29 -52 -78 -131
-108 -178 -31 -46 -90 -138 -132 -203 -90 -138 -322 -470 -376 -536 -20 -25
-99 -124 -176 -220 -381 -479 -841 -955 -1304 -1350 -35 -30 -83 -71 -105 -91
-38 -35 -229 -188 -387 -311 -94 -74 -345 -251 -473 -336 -353 -231 -364 -238
-623 -386 -200 -114 -642 -339 -837 -425 -55 -25 -136 -61 -180 -81 -44 -21
-91 -41 -105 -45 -14 -4 -38 -13 -55 -21 -140 -64 -768 -284 -995 -348 -30 -9
-125 -36 -212 -60 -86 -25 -189 -52 -230 -60 -41 -8 -130 -29 -198 -45 -132
-31 -204 -45 -440 -86 -80 -14 -167 -29 -195 -35 -27 -5 -144 -21 -260 -35
-115 -14 -246 -29 -290 -35 -476 -60 -1554 -60 -2030 0 -44 6 -174 21 -290 35
-115 14 -232 30 -260 35 -27 6 -99 19 -160 29 -60 11 -153 27 -205 36 -88 15
-331 69 -530 117 -282 67 -867 252 -1147 362 -78 31 -145 56 -147 56 -3 0 -29
11 -58 24 -29 13 -64 27 -78 31 -14 4 -61 24 -105 45 -44 20 -125 56 -180 81
-357 158 -948 476 -1246 671 -79 52 -171 112 -204 133 -67 42 -429 301 -515
367 -187 145 -298 236 -485 399 -470 407 -907 861 -1280 1330 -76 96 -155 194
-174 219 -20 25 -61 80 -91 123 -30 42 -92 129 -138 193 -45 64 -110 159 -144
212 -34 54 -90 142 -126 197 -56 85 -173 283 -263 445 -14 25 -35 61 -46 80
-54 95 -343 680 -343 695 0 2 -20 47 -44 99 -24 51 -61 136 -81 187 -20 52
-65 166 -100 254 -60 152 -208 583 -240 697 -8 29 -31 109 -50 178 -45 157
-84 303 -95 355 -4 22 -24 112 -45 200 -20 88 -45 210 -56 270 -11 61 -28 160
-39 220 -38 208 -85 579 -101 785 -5 74 -14 173 -20 220 -16 131 -23 984 -10
1195 19 307 39 546 51 635 22 169 39 296 45 350 3 30 10 73 16 95 5 22 16 81
24 130 57 365 136 712 266 1160 177 611 510 1413 827 1990 239 437 603 994
852 1305 42 52 110 138 152 190 41 52 111 135 154 184 44 49 110 126 147 170
277 326 851 874 1232 1177 39 30 113 89 165 131 129 102 486 355 645 458 72
46 167 107 211 136 45 29 102 63 125 77 24 13 107 60 184 104 202 116 228 130
460 246 255 127 559 265 755 342 80 32 179 71 220 87 135 53 561 195 730 242
91 26 193 56 227 67 66 21 153 42 523 124 76 17 250 50 370 70 47 8 123 21
170 29 187 31 527 72 735 87 88 6 198 15 245 19 164 14 1034 11 1210 -4z"/>
<path d="M9800 20073 c-683 -27 -1380 -127 -1990 -285 -63 -16 -140 -36 -170
-43 -222 -55 -637 -189 -893 -289 -66 -25 -125 -46 -133 -46 -8 0 -14 -4 -14
-10 0 -5 -7 -10 -16 -10 -9 0 -71 -23 -138 -51 -131 -54 -133 -55 -280 -123
-54 -25 -105 -46 -112 -46 -8 0 -14 -4 -14 -10 0 -5 -5 -10 -11 -10 -18 0
-396 -184 -409 -199 -3 -3 -36 -22 -75 -41 -75 -38 -207 -111 -215 -120 -3 -3
-23 -15 -45 -27 -108 -58 -291 -169 -373 -227 -28 -20 -56 -36 -60 -36 -5 0
-17 -9 -27 -20 -10 -11 -20 -18 -23 -16 -2 3 -25 -10 -50 -29 -25 -19 -49 -35
-54 -35 -5 0 -6 -4 -3 -10 3 -5 -3 -10 -14 -10 -12 0 -21 -5 -21 -11 0 -5 -4
-8 -9 -5 -5 4 -11 3 -13 -1 -5 -12 -75 -63 -86 -63 -6 0 -12 -7 -15 -15 -4 -8
-24 -23 -45 -34 -22 -11 -46 -26 -53 -33 -14 -13 -23 -20 -117 -84 -29 -20
-59 -46 -67 -57 -8 -12 -15 -18 -15 -13 0 4 -15 -5 -34 -20 -18 -16 -46 -38
-62 -49 -29 -21 -165 -132 -199 -163 -11 -10 -64 -54 -117 -97 -54 -43 -94
-83 -91 -88 3 -6 2 -7 -3 -4 -11 6 -104 -77 -104 -93 0 -6 -6 -10 -12 -10 -17
0 -118 -92 -118 -107 0 -7 -7 -10 -15 -7 -18 7 -20 -12 -2 -20 6 -3 1 -3 -12
0 -20 5 -23 3 -18 -10 4 -10 3 -14 -3 -11 -5 3 -16 -5 -25 -18 -8 -13 -26 -30
-40 -37 -13 -7 -23 -16 -21 -19 1 -3 -5 -14 -16 -23 -10 -10 -18 -16 -18 -15
0 2 -24 -19 -52 -47 -29 -28 -52 -54 -50 -58 1 -5 -5 -8 -13 -8 -8 0 -20 -10
-26 -22 -7 -13 -23 -31 -36 -41 -12 -10 -23 -26 -23 -34 0 -9 -3 -13 -7 -10
-9 9 -34 -13 -27 -24 3 -5 0 -8 -8 -7 -7 2 -12 -3 -10 -10 1 -8 -2 -11 -7 -8
-11 7 -35 -20 -27 -32 3 -6 -2 -9 -12 -8 -9 0 -16 -5 -14 -11 1 -7 -5 -13 -13
-13 -8 0 -20 -10 -26 -22 -7 -13 -31 -40 -55 -61 -26 -23 -41 -44 -37 -53 3
-8 -1 -14 -10 -14 -19 0 -79 -74 -69 -85 4 -5 2 -5 -4 -2 -6 4 -19 -2 -29 -13
-10 -11 -15 -20 -12 -20 3 0 -9 -15 -28 -33 -18 -18 -54 -59 -80 -92 -55 -72
-102 -129 -133 -162 -12 -13 -22 -27 -22 -30 0 -3 -21 -30 -46 -59 -25 -30
-43 -54 -41 -54 3 0 -13 -19 -34 -42 -22 -24 -39 -48 -39 -54 0 -6 -11 -21
-25 -34 -13 -12 -22 -27 -19 -31 3 -5 2 -9 -3 -9 -4 0 -19 -17 -33 -38 -14
-20 -28 -41 -33 -47 -75 -99 -207 -291 -207 -302 0 -5 -9 -16 -20 -26 -11 -9
-20 -23 -20 -31 0 -7 -7 -20 -16 -27 -9 -7 -20 -22 -25 -34 -5 -11 -22 -39
-37 -62 -33 -51 -118 -187 -142 -228 -56 -96 -143 -250 -151 -269 -5 -11 -25
-48 -44 -81 -19 -33 -44 -80 -56 -105 -12 -25 -31 -58 -43 -75 -11 -16 -20
-31 -18 -33 5 -4 -42 -97 -50 -100 -5 -2 -8 -8 -8 -13 0 -9 -26 -68 -85 -194
-67 -142 -95 -207 -101 -231 -3 -13 -9 -24 -14 -24 -4 0 -12 -19 -19 -42 -7
-24 -26 -70 -42 -103 -16 -33 -29 -63 -29 -67 0 -7 -47 -130 -85 -223 -6 -16
-17 -46 -24 -65 -106 -306 -162 -478 -216 -665 -37 -127 -86 -322 -166 -665
-39 -170 -110 -590 -129 -775 -7 -60 -14 -113 -16 -116 -3 -5 -22 -205 -45
-484 -27 -328 -21 -1117 11 -1510 39 -465 108 -929 196 -1310 74 -324 62 -277
168 -650 93 -332 277 -844 409 -1140 160 -359 229 -503 375 -775 181 -338 415
-710 676 -1075 71 -99 132 -182 136 -185 3 -3 28 -34 55 -70 249 -330 552
-668 950 -1059 481 -473 993 -876 1654 -1298 286 -183 795 -454 1131 -603 102
-45 199 -88 215 -96 120 -53 476 -188 659 -250 232 -79 704 -217 866 -253 52
-12 140 -33 196 -46 120 -29 261 -58 399 -81 55 -9 123 -20 150 -25 112 -20
532 -70 705 -85 556 -45 1157 -46 1695 -4 418 33 964 115 1305 196 80 19 177
42 215 50 39 9 99 24 135 35 36 10 139 39 230 64 259 73 634 199 880 296 124
50 234 94 245 99 32 14 129 58 275 122 74 33 146 65 160 72 107 53 472 244
500 261 19 12 104 61 188 109 328 186 763 483 1136 775 445 349 998 877 1340
1282 16 19 57 66 91 104 64 73 185 224 270 335 27 36 52 67 55 70 13 10 266
368 345 487 170 259 236 364 329 526 160 279 305 557 402 775 36 81 77 172 91
202 14 30 41 93 60 140 18 47 38 94 43 105 5 11 19 45 30 75 11 30 25 64 30
75 45 96 209 584 274 815 19 69 48 172 64 230 16 58 37 137 45 175 9 39 32
136 51 216 19 80 39 172 45 205 5 32 28 165 50 294 22 129 44 282 50 340 6 58
16 134 21 170 18 114 40 445 52 778 26 731 -34 1518 -171 2227 -44 227 -122
544 -198 805 -25 85 -50 171 -55 190 -69 244 -263 768 -385 1040 -30 69 -69
157 -86 195 -33 74 -270 546 -304 605 -79 135 -141 243 -167 290 -30 56 -277
441 -329 515 -281 397 -489 668 -672 874 -27 32 -72 84 -100 116 -224 269
-927 937 -1217 1158 -30 23 -104 80 -164 127 -224 175 -729 520 -934 638 -52
30 -153 89 -225 130 -199 114 -652 342 -812 409 -21 8 -65 28 -98 43 -139 64
-566 228 -775 297 -218 71 -693 210 -795 232 -27 6 -135 30 -240 55 -104 24
-248 54 -320 66 -71 12 -164 28 -205 36 -240 45 -749 96 -1128 114 -188 9
-705 10 -892 3z m975 -154 c294 -13 783 -64 970 -100 28 -5 91 -16 140 -24
510 -83 1089 -234 1620 -423 137 -48 451 -172 537 -210 24 -11 61 -27 83 -36
303 -125 817 -395 1199 -629 767 -470 1482 -1067 2131 -1781 6 -6 46 -51 89
-101 44 -49 92 -105 108 -123 111 -125 390 -493 584 -767 209 -297 478 -753
664 -1125 93 -186 230 -475 230 -487 0 -4 9 -25 19 -47 40 -85 151 -358 151
-372 0 -3 7 -20 15 -37 39 -84 160 -448 240 -722 277 -949 404 -1953 374
-2967 -21 -743 -106 -1372 -280 -2078 -114 -463 -335 -1116 -496 -1468 -18
-41 -33 -75 -33 -77 0 -16 -241 -514 -315 -650 -185 -342 -303 -538 -517 -858
-447 -671 -1026 -1331 -1648 -1878 -809 -713 -1765 -1302 -2765 -1706 -578
-233 -1230 -427 -1780 -528 -77 -14 -147 -27 -155 -30 -74 -22 -586 -87 -915
-117 -220 -19 -313 -22 -780 -22 -566 -1 -671 5 -1150 60 -762 88 -1478 260
-2236 537 -683 251 -1416 630 -2056 1063 -702 475 -1371 1072 -1903 1694 -30
35 -71 82 -91 104 -167 189 -510 655 -715 971 -67 103 -264 423 -264 429 0 2
-36 68 -81 147 -114 203 -324 631 -414 844 -42 99 -80 189 -85 200 -5 11 -21
50 -35 87 -14 38 -36 96 -50 130 -64 168 -175 497 -225 673 -19 65 -47 166
-65 230 -33 119 -84 333 -119 500 -32 157 -46 229 -90 480 -20 113 -62 443
-76 595 -6 63 -16 174 -22 245 -17 176 -17 1212 0 1395 41 460 76 726 146
1115 8 44 31 154 51 245 242 1106 648 2106 1241 3060 252 406 598 875 873
1185 44 50 95 110 113 135 18 25 65 76 104 115 38 38 86 90 106 115 19 25 57
65 83 90 26 25 112 108 189 185 129 128 202 194 455 415 339 295 844 664 1219
891 15 9 63 39 107 66 157 96 453 258 675 369 233 115 248 122 490 225 80 33
150 64 155 69 6 4 23 10 39 14 17 4 64 23 105 43 42 19 110 45 151 58 41 13
154 51 250 84 1039 359 2132 531 3265 513 94 -1 269 -7 390 -13z"/>
<path d="M9695 19839 c-465 -24 -1041 -102 -1510 -206 -385 -84 -1029 -266
-1110 -312 -17 -10 -47 -20 -67 -24 -20 -3 -69 -21 -110 -40 -86 -41 -96 -44
-168 -63 -30 -8 -69 -23 -86 -33 -17 -10 -48 -24 -70 -31 -172 -55 -1057 -496
-1206 -601 -14 -11 -28 -19 -31 -19 -14 0 -504 -313 -552 -353 -5 -4 -80 -58
-165 -119 -172 -123 -233 -169 -238 -180 -2 -5 -9 -8 -15 -8 -7 0 -28 -15 -48
-33 -20 -17 -105 -88 -189 -157 -84 -68 -176 -145 -204 -170 -28 -25 -69 -60
-91 -77 -22 -17 -98 -91 -170 -163 -71 -73 -153 -149 -182 -171 -29 -21 -77
-69 -106 -107 -50 -61 -88 -101 -173 -179 -16 -15 -52 -56 -78 -91 -26 -34
-58 -70 -71 -78 -42 -27 -216 -237 -427 -514 -40 -52 -76 -97 -79 -100 -14
-11 -218 -303 -322 -459 -195 -293 -235 -359 -429 -706 -64 -115 -313 -621
-369 -750 -77 -179 -97 -229 -146 -355 -438 -1126 -655 -2286 -655 -3495 1
-910 101 -1660 345 -2580 87 -327 300 -934 418 -1193 16 -35 29 -65 29 -67 0
-7 114 -253 174 -377 94 -193 244 -477 302 -570 30 -48 54 -90 54 -93 0 -11
199 -326 308 -488 494 -735 1080 -1388 1793 -1998 62 -52 298 -241 349 -279
18 -14 45 -34 59 -46 14 -11 82 -61 151 -111 880 -634 1829 -1104 2855 -1413
640 -193 1219 -303 1975 -375 121 -12 654 -35 800 -35 175 0 700 25 860 41
617 61 1036 134 1580 276 850 221 1733 588 2450 1020 63 38 126 76 140 84 14
7 27 17 30 20 3 3 16 12 30 19 36 19 234 149 385 254 615 425 1206 949 1715
1522 69 78 132 150 140 160 9 10 49 60 91 109 333 399 679 902 956 1390 139
246 335 638 430 860 19 44 41 94 48 110 105 227 321 843 407 1160 192 707 299
1362 339 2075 60 1088 -80 2268 -391 3286 -77 252 -190 584 -224 659 -8 17
-17 41 -21 55 -7 25 -38 101 -137 335 -65 155 -264 564 -369 758 -171 316
-387 663 -605 973 -78 111 -146 205 -157 216 -7 7 -39 49 -72 93 -316 421
-822 964 -1260 1351 -193 170 -509 425 -679 547 -32 23 -88 63 -125 90 -123
88 -465 314 -566 373 -55 32 -101 62 -103 66 -2 5 -7 8 -11 8 -4 0 -63 32
-132 71 -315 182 -832 431 -1171 564 -79 31 -156 63 -173 70 -88 38 -534 185
-756 249 -165 47 -489 129 -599 151 -420 83 -517 100 -775 134 -275 36 -501
58 -760 71 -216 11 -836 11 -1060 -1z m-2480 -873 c10 4 16 -6 21 -32 6 -32 8
-35 15 -19 8 19 8 19 15 -2 3 -13 11 -23 16 -23 5 0 6 -4 3 -10 -3 -5 -2 -10
2 -10 5 0 29 -28 53 -62 25 -34 50 -66 55 -72 6 -6 18 -21 26 -34 15 -21 161
-183 204 -227 46 -45 215 -198 237 -213 13 -9 48 -36 78 -59 69 -55 65 -52
125 -93 28 -19 52 -37 55 -40 3 -3 48 -33 100 -65 131 -82 148 -104 176 -225
16 -72 16 -82 -5 -195 -12 -68 -54 -163 -76 -171 -7 -3 -12 -11 -9 -18 4 -11
-26 -44 -51 -56 -5 -3 -20 -15 -34 -27 -13 -13 -28 -23 -33 -23 -5 0 -13 10
-18 23 -5 12 -9 16 -9 10 -1 -9 -24 -13 -81 -13 -57 0 -80 -4 -80 -12 0 -9
-22 -13 -77 -13 -98 0 -210 -12 -235 -26 -15 -8 -19 -8 -14 0 4 6 1 11 -7 11
-17 0 -40 -24 -31 -33 3 -3 -9 -4 -27 -2 -19 3 -35 9 -37 14 -2 7 -10 6 -22
-1 -15 -10 -25 -7 -54 13 -20 13 -36 27 -36 32 0 4 -6 7 -14 7 -8 0 -16 7 -20
15 -3 8 -11 15 -17 15 -33 0 -207 193 -292 322 -48 74 -172 317 -206 403 -13
33 -36 92 -51 130 -59 149 -140 417 -140 462 0 12 -5 25 -10 28 -6 4 -8 15 -5
25 3 10 1 21 -5 25 -14 8 -13 45 1 45 6 0 9 9 6 20 -3 11 -1 18 4 14 5 -3 9
-12 9 -20 0 -8 4 -14 10 -14 5 0 12 -11 16 -25 3 -14 12 -25 19 -25 7 0 18
-13 23 -29 8 -24 18 -31 48 -37 32 -6 40 -4 56 17 10 13 23 30 28 37 6 6 7 12
3 12 -5 0 -13 16 -20 37 -12 41 0 83 24 83 8 0 11 4 8 10 -3 6 1 7 9 4 9 -3
16 -10 16 -15 0 -19 31 -8 42 16 6 14 19 25 28 25 20 0 34 37 16 43 -6 2 -7 8
-3 13 10 11 27 -15 21 -31 -3 -7 2 -15 10 -18 11 -4 18 1 22 18 8 32 24 32 24
0 0 -14 5 -25 10 -25 6 0 9 10 6 23 -2 12 2 31 9 41 13 16 14 16 20 -3 9 -30
37 -15 32 18 -2 14 -2 21 0 14 2 -7 10 -10 18 -7z m962 -1692 c-3 -3 -12 -4
-19 -1 -8 3 -5 6 6 6 11 1 17 -2 13 -5z m-440 -50 c-3 -3 -12 -4 -19 -1 -8 3
-5 6 6 6 11 1 17 -2 13 -5z m-3849 -274 c17 -16 35 -30 41 -30 6 0 11 -7 11
-15 0 -8 4 -15 10 -15 5 0 63 -53 128 -117 160 -160 306 -293 452 -413 30 -24
57 -48 58 -52 2 -5 8 -8 13 -8 5 0 30 -15 56 -34 113 -80 327 -198 454 -251
35 -15 82 -35 104 -45 113 -51 451 -142 650 -175 55 -9 111 -19 125 -21 38 -7
327 -43 395 -49 94 -8 135 -16 135 -26 0 -5 -6 -12 -12 -14 -9 -4 -12 -28 -10
-85 2 -52 0 -80 -7 -80 -15 0 -14 -77 2 -83 10 -4 10 -7 0 -18 -11 -11 -13
-10 -13 4 0 9 -4 17 -10 17 -6 0 -10 -87 -10 -240 0 -153 4 -240 10 -240 6 0
10 8 10 17 0 14 2 15 13 4 10 -11 10 -14 0 -18 -22 -8 -16 -101 8 -131 19 -24
19 -27 4 -30 -15 -3 -16 -12 -11 -60 3 -32 9 -103 12 -159 7 -100 8 -103 30
-103 18 0 24 -6 24 -22 0 -12 6 -29 14 -37 8 -9 16 -39 17 -66 3 -57 23 -88
51 -79 12 3 18 0 18 -10 0 -8 -9 -18 -20 -21 -16 -5 -20 -15 -20 -46 0 -21 5
-39 10 -39 6 0 10 18 10 40 0 29 4 40 15 40 11 0 15 -12 15 -50 0 -42 3 -50
18 -50 10 0 28 -13 40 -30 22 -30 22 -30 2 -30 -30 0 -25 -11 25 -50 24 -19
44 -39 45 -44 0 -4 12 -17 26 -28 28 -23 19 -38 -23 -38 -13 0 -23 -4 -23 -10
0 -5 9 -10 20 -10 11 0 20 -4 20 -10 0 -5 18 -8 41 -6 24 3 51 -2 67 -11 l27
-15 -37 5 c-21 3 -38 2 -38 -3 0 -4 -16 -11 -35 -14 -19 -4 -35 -10 -35 -14 0
-4 -19 -15 -42 -25 -33 -15 -43 -16 -49 -5 -7 10 -9 9 -9 -4 0 -10 -4 -18 -10
-18 -11 0 -24 65 -16 85 3 9 0 15 -7 15 -7 0 -23 9 -35 20 -33 31 -145 31
-267 0 -22 -6 -47 -12 -56 -14 -9 -3 -48 -14 -86 -25 -73 -22 -163 -38 -163
-28 0 4 65 39 80 43 15 3 71 33 108 57 78 50 80 111 5 143 -41 17 -106 16
-288 -6 -114 -13 -301 -13 -385 1 -36 6 -74 12 -85 14 -36 5 -178 56 -245 88
-135 64 -508 294 -518 319 -2 4 -8 8 -14 8 -6 0 -22 10 -37 23 -15 12 -40 31
-55 42 -16 11 -33 25 -40 30 -6 6 -29 23 -51 40 -148 110 -485 430 -600 570
-28 33 -52 62 -55 65 -86 85 -360 461 -441 605 -12 22 -36 65 -52 95 -17 30
-41 73 -54 95 -12 22 -28 51 -34 65 -6 14 -15 33 -20 42 -5 10 -9 25 -9 34 0
9 -8 29 -17 45 -17 29 -10 56 7 29 8 -13 10 -12 10 3 0 10 8 17 20 17 13 0 17
5 14 14 -4 11 0 13 17 9 29 -8 59 -34 59 -51 0 -7 7 -15 15 -18 8 -4 15 -11
15 -16 0 -6 10 -20 23 -32 12 -12 40 -44 62 -71 39 -49 208 -220 256 -260 74
-62 109 -70 134 -31 21 32 14 46 -63 113 -37 32 -94 87 -127 123 -33 36 -67
74 -77 84 -10 11 -18 24 -18 29 0 6 -16 29 -35 53 -19 23 -35 47 -35 53 0 5
-11 22 -25 37 -14 15 -25 32 -25 39 0 7 -7 18 -15 25 -8 7 -15 20 -15 30 0 10
-6 23 -13 29 -15 12 -11 71 4 71 5 0 18 -5 28 -12 17 -10 24 -8 46 14 27 27
21 43 -11 31 -13 -5 -16 -3 -11 10 3 9 2 17 -2 17 -12 0 -1 42 16 58 14 14 17
7 14 -30 -1 -10 4 -18 13 -18 9 0 16 8 16 19 0 21 -1 23 159 -144 110 -113
122 -121 158 -103 46 22 41 53 -22 137 -30 41 -55 80 -55 87 0 8 -13 27 -30
42 -18 18 -30 39 -30 55 0 17 -4 25 -13 21 -7 -2 -17 8 -24 27 l-12 31 26 -17
c25 -17 26 -17 19 0 -4 11 0 22 11 31 17 13 17 13 -1 14 -15 0 -16 3 -6 15 8
9 30 15 56 15 40 0 44 2 44 25 0 16 -6 25 -16 25 -11 0 -8 9 13 37 19 25 24
38 15 41 -14 4 -16 22 -3 22 5 0 23 -13 39 -30z m12198 -267 c-2 -10 -7 -45
-11 -78 -6 -59 -20 -154 -70 -465 -14 -85 -30 -185 -35 -222 -6 -38 -15 -96
-20 -130 -10 -62 -22 -148 -40 -278 -10 -72 -28 -189 -36 -235 -3 -16 -9 -61
-14 -100 -6 -38 -14 -99 -20 -135 -5 -36 -15 -99 -21 -140 -5 -41 -17 -113
-25 -160 -8 -47 -21 -137 -29 -200 -15 -123 -21 -163 -60 -425 -14 -93 -37
-254 -51 -357 -22 -150 -30 -187 -43 -190 -9 -2 -650 -2 -1425 0 l-1409 2 6
58 c4 31 11 89 17 127 6 39 18 117 26 175 8 58 19 134 24 170 6 36 17 117 25
180 8 63 18 127 21 141 4 20 2 27 -13 30 -10 2 -480 3 -1044 1 l-1027 -3 -6
-42 c-3 -23 -17 -127 -31 -232 -14 -104 -32 -235 -41 -290 -8 -55 -21 -148
-29 -207 -8 -59 -24 -169 -35 -245 -11 -76 -27 -187 -35 -248 -8 -60 -20 -132
-25 -160 -10 -49 -55 -356 -110 -750 -6 -44 -18 -129 -26 -190 -8 -60 -18
-137 -24 -170 -5 -33 -16 -114 -26 -180 -9 -66 -20 -145 -25 -175 -5 -30 -11
-81 -15 -113 l-7 -57 1312 2 1313 3 -5 -45 c-4 -41 -22 -164 -46 -315 -5 -33
-14 -91 -20 -130 -6 -38 -18 -115 -27 -170 -8 -55 -19 -125 -24 -155 -25 -162
-31 -197 -56 -345 -3 -16 -10 -61 -15 -100 -6 -38 -14 -92 -19 -120 -4 -27
-13 -88 -19 -135 -6 -47 -20 -141 -31 -210 -29 -186 -48 -314 -62 -415 -6 -49
-15 -94 -20 -100 -6 -7 -452 -9 -1312 -7 l-1303 3 -12 -88 c-7 -48 -16 -113
-22 -143 -5 -30 -18 -120 -29 -200 -11 -80 -31 -221 -45 -315 -14 -93 -30
-201 -35 -240 -6 -38 -15 -97 -20 -130 -5 -33 -13 -91 -19 -130 -14 -105 -78
-536 -96 -650 -20 -131 -33 -217 -50 -345 -8 -58 -19 -134 -24 -170 -6 -36
-15 -96 -20 -135 -6 -38 -18 -115 -26 -170 -9 -55 -20 -129 -25 -165 -5 -36
-14 -94 -19 -129 -6 -36 -8 -68 -5 -73 3 -4 233 -8 511 -8 l506 0 -7 -32 c-12
-52 -28 -158 -60 -378 -8 -58 -20 -134 -26 -170 -5 -36 -15 -99 -21 -140 -5
-41 -12 -86 -15 -100 -5 -26 -20 -135 -29 -205 -3 -22 -10 -65 -15 -95 -6 -30
-17 -100 -25 -155 -8 -55 -20 -129 -25 -165 -6 -36 -20 -130 -31 -210 -11 -80
-25 -172 -30 -205 -5 -33 -16 -107 -25 -165 -9 -58 -18 -129 -21 -158 -3 -29
-9 -54 -13 -57 -4 -2 -1100 -5 -2436 -6 -1775 -1 -2429 2 -2432 10 -2 6 3 55
12 109 8 53 20 135 26 182 6 47 16 110 21 140 5 30 19 116 29 190 24 162 32
214 65 435 14 94 41 274 60 400 19 127 41 275 50 330 20 132 65 436 65 441 0
2 225 4 499 4 314 0 502 4 506 10 3 5 15 71 25 147 31 217 41 286 46 308 2 11
11 72 20 135 8 63 19 142 24 175 5 33 14 92 19 130 6 39 18 120 27 180 9 61
20 139 24 175 5 36 25 173 45 305 20 132 42 287 50 345 8 58 19 134 25 170 6
36 15 94 20 130 23 157 41 279 50 335 5 33 14 89 19 125 5 36 17 115 26 175 9
61 20 142 25 180 4 39 16 117 25 175 9 58 20 137 25 175 6 39 14 99 20 135 14
88 39 265 45 320 3 25 10 68 15 95 20 107 30 174 45 290 9 66 23 165 31 220 8
55 21 147 30 205 15 109 28 192 44 295 10 67 35 231 51 345 23 164 28 199 43
310 29 214 35 255 51 355 9 55 21 129 26 165 5 36 14 92 19 125 5 33 16 114
25 180 14 113 21 158 45 308 23 134 50 320 74 507 7 58 21 152 30 210 9 58 30
204 48 325 40 283 43 304 67 465 12 74 21 141 21 147 0 10 -113 13 -512 15
l-513 3 2 25 c1 14 7 53 13 88 19 119 29 177 39 252 6 41 15 100 20 130 5 30
15 89 21 130 6 41 15 100 20 130 5 30 16 109 25 175 9 66 21 136 26 156 5 20
9 49 9 65 0 16 7 61 15 99 16 72 35 194 79 515 14 102 30 212 36 245 5 33 14
94 21 135 6 41 13 81 15 88 3 9 893 12 4409 12 4192 0 4406 -1 4401 -17z
m-12646 -124 c0 -11 -4 -18 -10 -14 -5 3 -7 12 -3 20 7 21 13 19 13 -6z m-146
-164 c-4 -8 -1 -15 6 -15 14 0 9 -42 -6 -47 -7 -2 -10 10 -8 34 2 43 2 43 9
43 2 0 2 -7 -1 -15z m-45 -81 c-15 -18 -22 -13 -13 10 3 9 10 13 16 10 5 -3 4
-12 -3 -20z m3238 -1196 c-1 -46 -3 -9 -3 82 0 91 2 128 3 83 2 -46 2 -120 0
-165z m149 -836 c-6 -5 -36 23 -36 34 0 4 9 -1 20 -11 11 -10 18 -20 16 -23z
m54 -515 c0 -5 -9 -6 -19 -2 -11 3 -22 1 -26 -5 -3 -5 -11 -10 -17 -10 -7 0
-2 9 10 20 12 12 22 26 22 32 0 13 29 -22 30 -35z m5248 -273 c45 -6 53 -10
58 -31 6 -24 9 -25 83 -20 42 2 59 2 39 0 -32 -4 -38 -8 -38 -29 0 -21 4 -24
40 -24 29 0 40 -4 40 -15 0 -8 -4 -15 -10 -15 -5 0 -10 -18 -10 -40 0 -22 5
-40 10 -40 6 0 10 18 10 40 0 47 12 50 45 13 20 -23 26 -25 34 -14 8 12 16 9
44 -15 20 -16 36 -35 36 -41 1 -8 16 -13 41 -13 29 0 40 -4 40 -15 0 -11 -11
-15 -40 -15 -22 0 -40 -4 -40 -10 0 -5 -11 -10 -25 -10 -29 0 -31 -7 -8 -32
18 -20 113 -27 113 -8 0 6 18 10 40 10 29 0 40 -4 40 -15 0 -11 -11 -15 -40
-15 -22 0 -40 -4 -40 -10 0 -5 -18 -10 -40 -10 -29 0 -40 -4 -40 -15 0 -11 11
-15 40 -15 22 0 40 -4 40 -10 0 -15 77 -12 83 3 4 7 6 6 6 -5 1 -9 8 -24 17
-32 8 -9 11 -16 5 -16 -6 0 -11 -17 -12 -37 -1 -34 -2 -35 -9 -13 -7 22 -8 20
-10 -15 -1 -22 -4 -32 -7 -22 -2 9 -9 17 -15 17 -6 0 -8 -11 -4 -26 6 -23 4
-25 -16 -19 -21 6 -22 5 -5 -8 23 -19 22 -24 -9 -31 -21 -6 -25 -11 -20 -30 4
-18 1 -25 -14 -29 -11 -3 -19 -9 -18 -14 1 -4 -6 -21 -17 -37 -17 -26 -20 -27
-26 -10 -7 17 -8 17 -8 -3 -1 -33 -31 -65 -48 -51 -13 11 -18 1 -14 -29 1 -7
-2 -13 -7 -13 -4 0 -17 -8 -28 -19 -11 -10 -30 -24 -42 -30 -13 -7 -20 -16
-18 -20 3 -4 -6 -6 -19 -3 -19 3 -25 -1 -31 -22 -5 -21 -11 -25 -25 -21 -11 4
-19 3 -18 -2 3 -20 -2 -25 -15 -14 -8 6 -18 11 -22 10 -19 -3 -35 1 -30 9 8
13 -63 35 -113 34 -29 -1 -48 -7 -53 -17 -5 -8 -20 -15 -33 -15 -13 0 -27 -5
-30 -10 -10 -16 -25 -1 -24 23 0 12 3 16 6 10 6 -15 53 -18 53 -3 0 5 -7 6
-17 3 -11 -5 -14 -3 -8 6 4 8 2 17 -6 22 -7 4 -16 4 -19 -1 -3 -5 -13 5 -23
21 -16 29 -16 30 3 24 11 -4 20 -2 20 4 0 6 -4 11 -10 11 -5 0 -10 12 -10 26
0 17 -6 28 -20 31 -16 4 -20 14 -20 44 0 22 -4 39 -10 39 -5 0 -10 -20 -10
-44 0 -25 5 -48 10 -51 6 -3 10 -12 10 -20 0 -19 -91 -26 -110 -8 -13 12 -11
13 13 8 17 -5 27 -3 27 4 0 6 -7 11 -15 11 -8 0 -15 9 -15 20 0 13 7 20 19 20
26 0 51 10 51 21 0 5 -24 9 -54 9 -35 0 -58 5 -66 15 -10 12 -10 15 4 15 14 0
16 28 16 280 0 242 2 280 15 280 8 0 15 5 15 11 0 19 28 39 54 39 22 0 26 5
26 28 0 44 11 51 90 55 41 1 84 4 95 5 11 1 44 -1 73 -4z m-421 -276 c-2 -13
-4 -3 -4 22 0 25 2 35 4 23 2 -13 2 -33 0 -45z m1068 -8 c3 -5 1 -10 -4 -10
-6 0 -11 5 -11 10 0 6 2 10 4 10 3 0 8 -4 11 -10z m-20 -89 c-3 -6 -11 -11
-16 -11 -5 0 -4 6 3 14 14 16 24 13 13 -3z m-15 -45 c0 -2 -7 -9 -15 -16 -12
-10 -15 -10 -15 4 0 9 7 16 15 16 8 0 15 -2 15 -4z m-1030 -370 c0 -8 7 -16
15 -20 19 -7 20 -26 2 -26 -8 0 -19 11 -25 25 -15 32 -15 35 -2 35 6 0 10 -6
10 -14z m57 8 c-3 -3 -12 -4 -19 -1 -8 3 -5 6 6 6 11 1 17 -2 13 -5z m178
-212 c-8 -8 -25 10 -19 20 4 6 9 5 15 -3 4 -7 6 -15 4 -17z"/>
<path d="M7212 18910 c0 -19 2 -27 5 -17 2 9 2 25 0 35 -3 9 -5 1 -5 -18z"/>
<path d="M6906 18785 c4 -8 8 -15 10 -15 2 0 4 7 4 15 0 8 -4 15 -10 15 -5 0
-7 -7 -4 -15z"/>
<path d="M6715 18750 c3 -5 8 -10 11 -10 2 0 4 5 4 10 0 6 -5 10 -11 10 -5 0
-7 -4 -4 -10z"/>
<path d="M6941 18734 c0 -11 3 -14 6 -6 3 7 2 16 -1 19 -3 4 -6 -2 -5 -13z"/>
<path d="M7585 17260 c3 -5 8 -10 11 -10 2 0 4 5 4 10 0 6 -5 10 -11 10 -5 0
-7 -4 -4 -10z"/>
<path d="M3770 16790 c0 -5 9 -10 20 -10 11 0 20 5 20 10 0 6 -9 10 -20 10
-11 0 -20 -4 -20 -10z"/>
<path d="M3493 16456 c0 -18 3 -24 9 -18 7 7 7 16 0 28 -8 14 -9 13 -9 -10z"/>
<path d="M6460 14790 c0 -5 5 -10 10 -10 6 0 10 5 10 10 0 6 -4 10 -10 10 -5
0 -10 -4 -10 -10z"/>
<path d="M11858 13433 c12 -2 32 -2 45 0 12 2 2 4 -23 4 -25 0 -35 -2 -22 -4z"/>
<path d="M11600 13160 c0 -73 4 -120 10 -120 6 0 10 47 10 120 0 73 -4 120
-10 120 -6 0 -10 -47 -10 -120z"/>
<path d="M12220 13240 c0 -22 5 -40 10 -40 6 0 10 18 10 40 0 22 -4 40 -10 40
-5 0 -10 -18 -10 -40z"/>
<path d="M11600 12920 c0 -22 5 -40 10 -40 6 0 10 18 10 40 0 22 -4 40 -10 40
-5 0 -10 -18 -10 -40z"/>
<path d="M12080 12599 c0 -5 5 -7 10 -4 6 3 10 8 10 11 0 2 -4 4 -10 4 -5 0
-10 -5 -10 -11z"/>
</g>
</svg>
